# xmcd CD database file
# Copyright (C) 1993-1998 Ti Kan
#
# Track frame offsets:
#	150
#	20775
#	41025
#	66225
#	82875
#	100087
#	106950
#	123950
#	141225
#	168400
#
# Disc length: 2490 seconds
#
# Revision: 1
# Processed by: cddbd v1.4b41PL1 Copyright (c) Steve Scherf et al.
# Submitted via: CDValet v3.31 - Copyright (c) 1997 Greg Leichner
#
DISCID=8309b80a
DTITLE=Various Artist - The Andrew Durant Memorial Concert
DYEAR=1900
DGENRE=
TTITLE0=Back Again
TTITLE1=Let's Get Moving
TTITLE2=Pick up the Pieces
TTITLE3=Paradise
TTITLE4=Jive Town
TTITLE5=Good Times
TTITLE6=The Last of the Riverboats
TTITLE7=Jupiter Creek
TTITLE8=Ocean Deep
TTITLE9=Look After Yourself
EXTD=
EXTT0=
EXTT1=
EXTT2=
EXTT3=
EXTT4=
EXTT5=
EXTT6=
EXTT7=
EXTT8=
EXTT9=
PLAYORDER=
